<svg xmlns="http://www.w3.org/2000/svg" viewBox="0 0 500.45 249.31"><defs><style>.cls-1{fill:#8bbe41;}.cls-2{fill:#414441;}.cls-3{font-size:79.44px;font-family:BebasNeueBold;letter-spacing:0.06em;}.cls-3,.cls-4{fill:#fff;}</style></defs><g id="Layer_2" data-name="Layer 2"><g id="OBJECTS"><path class="cls-1" d="M0,124.65c0,47.16,20.47,90.49,54.7,124.66H445.76c34.22-34.17,54.69-77.5,54.69-124.66S480,34.17,445.76,0H54.7C20.47,34.17,0,77.5,0,124.65Z"/><path class="cls-2" d="M250.23,178c80.29,0,171.08,25.59,195.88,71,34-34.11,54.34-77.3,54.34-124.29S480.06,34.37,446,.23C416.07,54.06,330.43,79.67,250.23,79.67S86.28,54.06,54.48.23C20.39,34.37,0,77.6,0,124.65s20.34,90.18,54.34,124.29C87.15,205.53,169.94,178,250.23,178Z"/><text class="cls-3" transform="translate(12.41 156.4)">ORDER NOW</text><polygon class="cls-4" points="250.23 192.16 255.09 207.13 270.82 207.13 258.09 216.38 262.96 231.34 250.23 222.09 237.5 231.34 242.36 216.38 229.63 207.13 245.36 207.13 250.23 192.16"/><polygon class="cls-4" points="204.79 198.5 208.51 209.94 220.53 209.94 210.8 217 214.52 228.43 204.79 221.37 195.07 228.43 198.78 217 189.06 209.94 201.08 209.94 204.79 198.5"/><polygon class="cls-4" points="295.66 198.5 299.37 209.94 311.39 209.94 301.67 217 305.38 228.43 295.66 221.37 285.94 228.43 289.65 217 279.93 209.94 291.94 209.94 295.66 198.5"/><path class="cls-4" d="M240.44,47.06l-7.22-25.57-9.54.38a2.55,2.55,0,1,1-.19-5.09L237,16.25l2.34,8.28,40-.09L273,47.06Zm.36-17.46L244.29,42H269.1l3.58-12.33Z"/><path class="cls-4" d="M252.94,55.15a4.25,4.25,0,1,1-3-5.2A4.25,4.25,0,0,1,252.94,55.15Z"/><path class="cls-4" d="M269.48,55.15a4.25,4.25,0,1,1-3-5.2A4.25,4.25,0,0,1,269.48,55.15Z"/></g></g></svg>