<svg xmlns="http://www.w3.org/2000/svg" xmlns:xlink="http://www.w3.org/1999/xlink" viewBox="0 0 500 500"><defs><style>.cls-1{fill:url(#radial-gradient);}.cls-2{fill:#8bbe41;}.cls-3{fill:#414441;}.cls-4{font-size:48.04px;font-family:BebasNeueBold;letter-spacing:0.06em;}.cls-4,.cls-5{fill:#fff;}</style><radialGradient id="radial-gradient" cx="250" cy="250" r="250" gradientUnits="userSpaceOnUse"><stop offset="0" stop-color="#fff"/><stop offset="0.37" stop-color="#f5f5f5"/><stop offset="1" stop-color="#e8e8e8"/></radialGradient></defs><g id="BACKGROUND"><rect class="cls-1" width="500" height="500"/></g><g id="OBJECTS"><path class="cls-2" d="M118.19,235c0,28.51,12.38,54.72,33.08,75.38h236.5c20.69-20.66,33.08-46.87,33.08-75.38s-12.39-54.73-33.08-75.39H151.27C130.57,180.22,118.19,206.43,118.19,235Z"/><path class="cls-3" d="M269.52,267.19c48.55,0,103.47,15.47,118.46,42.92,20.57-20.63,32.87-46.75,32.87-75.16s-12.34-54.61-33-75.25c-18.09,32.55-69.88,48-118.38,48s-99.15-15.49-118.39-48c-20.61,20.64-32.94,46.79-32.94,75.25s12.3,54.53,32.86,75.16C170.9,283.85,221,267.19,269.52,267.19Z"/><text class="cls-4" transform="translate(125.7 254.14)">ORDER NOW</text><polygon class="cls-5" points="269.52 275.77 272.46 284.82 281.97 284.82 274.27 290.42 277.22 299.46 269.52 293.87 261.82 299.46 264.76 290.42 257.06 284.82 266.58 284.82 269.52 275.77"/><polygon class="cls-5" points="242.04 279.61 244.29 286.52 251.56 286.52 245.68 290.79 247.92 297.71 242.04 293.44 236.16 297.71 238.41 290.79 232.53 286.52 239.79 286.52 242.04 279.61"/><polygon class="cls-5" points="296.99 279.61 299.24 286.52 306.51 286.52 300.63 290.79 302.88 297.71 296.99 293.44 291.11 297.71 293.36 290.79 287.48 286.52 294.75 286.52 296.99 279.61"/><path class="cls-5" d="M263.6,188l-4.37-15.46-5.76.22a1.54,1.54,0,1,1-.12-3.08l8.18-.32,1.42,5,24.22,0L283.3,188Zm.22-10.56,2.11,7.47h15l2.16-7.46Z"/><path class="cls-5" d="M271.16,192.91a2.57,2.57,0,1,1-1.83-3.14A2.57,2.57,0,0,1,271.16,192.91Z"/><path class="cls-5" d="M281.16,192.91a2.57,2.57,0,1,1-1.82-3.14A2.57,2.57,0,0,1,281.16,192.91Z"/></g></svg>